<?xml version="1.0" standalone="no"?>
<!DOCTYPE svg PUBLIC "-//W3C//DTD SVG 20010904//EN"
 "http://www.w3.org/TR/2001/REC-SVG-20010904/DTD/svg10.dtd">
<svg version="1.0" xmlns="http://www.w3.org/2000/svg"
 width="647.000000pt" height="530.000000pt" viewBox="0 0 647.000000 530.000000"
 preserveAspectRatio="xMidYMid meet">
<metadata>
Created by potrace 1.16, written by Peter Selinger 2001-2019
</metadata>
<g transform="translate(0.000000,530.000000) scale(0.100000,-0.100000)"
fill="#000000" stroke="none">
<path d="M2193 5290 c-137 -25 -321 -119 -550 -282 -372 -264 -820 -729 -1260
-1308 -277 -364 -392 -588 -381 -741 5 -72 54 -157 188 -331 113 -147 639
-680 800 -810 202 -164 616 -469 677 -500 62 -30 64 -30 180 -26 98 4 132 10
199 35 336 121 521 396 584 863 12 85 45 306 75 490 98 610 129 860 106 875
-33 20 -59 -8 -197 -217 -78 -117 -186 -274 -241 -348 -55 -74 -164 -232 -243
-350 -78 -118 -158 -232 -178 -252 -86 -91 -149 -58 -490 255 -271 250 -322
318 -308 412 26 173 367 633 727 980 335 323 535 466 749 533 146 46 206 55
342 50 104 -4 137 -9 216 -36 51 -18 123 -48 161 -67 104 -54 127 -44 73 31
-84 115 -419 388 -737 601 -182 122 -344 169 -492 143z"/>
<path d="M4265 4033 c-194 -30 -392 -147 -503 -298 -130 -177 -183 -363 -207
-730 -9 -132 -22 -314 -30 -405 -19 -217 -42 -552 -50 -720 -7 -146 0 -190 34
-190 23 0 43 32 186 290 59 107 138 242 175 300 79 125 157 259 270 465 100
183 120 210 165 225 72 24 150 -21 454 -261 269 -211 340 -288 341 -370 1
-136 -223 -526 -503 -877 -199 -249 -510 -563 -651 -657 -94 -62 -230 -125
-345 -158 -63 -18 -102 -22 -221 -22 -157 0 -184 5 -353 71 -124 49 -138 36
-55 -52 127 -134 596 -448 853 -570 297 -141 508 -86 905 236 142 115 403 376
531 530 340 410 734 986 879 1285 70 145 92 217 98 317 5 104 -8 139 -101 257
-132 167 -570 568 -860 788 -152 116 -667 448 -798 516 -57 29 -143 42 -214
30z"/>
</g>
</svg>
